<?xml version="1.0" encoding="UTF-8" standalone="no"?>
<svg
   width="32"
   height="32"
   fill="#228B22"
   class="bi bi-bluesky"
   version="1.1"
   id="svg1"
   sodipodi:docname="bluesky.svg"
   inkscape:version="1.4.4 (dcaf3e7, 2026-05-05)"
   xmlns:inkscape="http://www.inkscape.org/namespaces/inkscape"
   xmlns:sodipodi="http://sodipodi.sourceforge.net/DTD/sodipodi-0.dtd"
   xmlns="http://www.w3.org/2000/svg"
   xmlns:svg="http://www.w3.org/2000/svg">
  <defs
     id="defs1" />
  <sodipodi:namedview
     id="namedview1"
     pagecolor="#ffffff"
     bordercolor="#000000"
     borderopacity="0.25"
     inkscape:showpageshadow="2"
     inkscape:pageopacity="0.0"
     inkscape:pagecheckerboard="0"
     inkscape:deskcolor="#d1d1d1"
     inkscape:current-layer="svg1" />
  <path
     d="m 6.936,3.8079578 c 3.67,2.754 7.616,8.3399992 9.064,11.3359992 1.45,-2.996 5.396,-8.5799992 9.064,-11.3359992 2.646,-1.986 6.936,-3.52400005 6.936,1.368 0,0.978 -0.56,8.2099992 -0.888,9.3839992 -1.144,4.08 -5.306,5.122 -9.008,4.492 6.472,1.102 8.12,4.75 4.562,8.4 -6.752,6.928 -9.704,-1.74 -10.46,-3.96 -0.14,-0.408 -0.206,-0.6 -0.206,-0.436 0,-0.162 -0.066,0.028 -0.204,0.436 -0.758,2.22 -3.71,10.888 -10.462,3.96 -3.556,-3.65 -1.91,-7.3 4.56,-8.4 -3.7,0.63 -7.864,-0.41 -9.006,-4.492 C 0.56,13.385957 0,6.1519578 0,5.1759578 c 0,-4.89200005 4.29,-3.354 6.936,-1.368"
     id="path1" />
</svg>
